<?xml version="1.0" encoding="utf-8"?>
<svg viewBox="0 -10 210 50" xmlns="http://www.w3.org/2000/svg" xmlns:bx="https://boxy-svg.com">
  <defs>
    <bx:guide x="60" y="30" angle="0"/>
    <bx:guide x="81.558" y="-10" angle="90"/>
    <bx:guide x="157.124" angle="90" y="50"/>
    <bx:guide x="140.147" y="10" angle="90"/>
    <bx:guide x="124.501" y="27" angle="90"/>
    <view id="ptop" viewBox="0 -10 210 20">
      <title>Puzzle_Top</title>
    </view>
    <view id="pbottom" viewBox="0 27 210 13">
      <title>Puzzle_Bottom</title>
    </view>
    <bx:guide x="167.915" y="40" angle="90"/>
    <bx:guide x="0" y="3.67" angle="0"/>
    <bx:guide x="210" y="10.08" angle="0"/>
  </defs>
  <path d="M 10 0 L 40 0 C 40 -5.523 44.477 -10 50 -10 C 55.523 -10 60 -5.523 60 0 L 200 0 C 205.523 0 210 4.477 210 10 L 210 30 C 210 35.523 205.523 40 200 40 L 60 40 C 60 34.477 55.523 30 50 30 C 44.477 30 40 34.477 40 40 L 10 40 C 4.477 40 0 35.523 0 30 L 0 10 C 0 4.477 4.477 0 10 0 Z" />
</svg>