<?xml version="1.0" encoding="utf-8"?>
<svg viewBox="0 0 210 50" xmlns="http://www.w3.org/2000/svg">
  <defs>
    <view id="ptop" viewBox="0 0 210 18">
      <title>View 1</title>
    </view>
    <view id="pbottom" viewBox="0 37 210 13">
      <title>View 1</title>
    </view>
  </defs>
  <path d="M 10 10 L 40 10 C 40 4.477 44.477 0 50 0 C 55.523 0 60 4.477 60 10 L 200 10 C 205.523 10 210 14.477 210 20 L 210 40 C 210 45.523 205.523 50 200 50 L 60 50 C 60 44.477 55.523 40 50 40 C 44.477 40 40 44.477 40 50 L 10 50 C 4.477 50 0 45.523 0 40 L 0 20 C 0 14.477 4.477 10 10 10 Z" style="fill: #1E90FF;"/>
</svg>